<svg width="17" height="16" viewBox="0 0 17 16" fill="none"
    xmlns="http://www.w3.org/2000/svg">
    <path d="M5.53732 1.29364H10.9705C13.0402 1.29364 14.7219 2.97533 14.7219 5.04509V10.4782C14.7219 11.4732 14.3267 12.4274 13.6231 13.1309C12.9196 13.8344 11.9654 14.2297 10.9705 14.2297H5.53732C3.46755 14.2297 1.78587 12.548 1.78587 10.4782V5.04509C1.78587 4.05015 2.18111 3.09595 2.88464 2.39242C3.58818 1.68888 4.54237 1.29364 5.53732 1.29364ZM5.40796 2.58724C4.79041 2.58724 4.19815 2.83257 3.76147 3.26924C3.32479 3.70592 3.07947 4.29818 3.07947 4.91573V10.6076C3.07947 11.8947 4.12082 12.9361 5.40796 12.9361H11.0998C11.7174 12.9361 12.3096 12.6908 12.7463 12.2541C13.183 11.8174 13.4283 11.2251 13.4283 10.6076V4.91573C13.4283 3.6286 12.387 2.58724 11.0998 2.58724H5.40796ZM11.6496 3.55745C11.864 3.55745 12.0697 3.64263 12.2213 3.79425C12.3729 3.94588 12.4581 4.15152 12.4581 4.36595C12.4581 4.58038 12.3729 4.78603 12.2213 4.93765C12.0697 5.08927 11.864 5.17445 11.6496 5.17445C11.4352 5.17445 11.2295 5.08927 11.0779 4.93765C10.9263 4.78603 10.8411 4.58038 10.8411 4.36595C10.8411 4.15152 10.9263 3.94588 11.0779 3.79425C11.2295 3.64263 11.4352 3.55745 11.6496 3.55745ZM8.25389 4.52765C9.1116 4.52765 9.93419 4.86838 10.5407 5.47487C11.1472 6.08137 11.4879 6.90395 11.4879 7.76166C11.4879 8.61938 11.1472 9.44196 10.5407 10.0485C9.93419 10.6549 9.1116 10.9957 8.25389 10.9957C7.39618 10.9957 6.57359 10.6549 5.9671 10.0485C5.3606 9.44196 5.01988 8.61938 5.01988 7.76166C5.01988 6.90395 5.3606 6.08137 5.9671 5.47487C6.57359 4.86838 7.39618 4.52765 8.25389 4.52765ZM8.25389 5.82126C7.73926 5.82126 7.24571 6.02569 6.88181 6.38959C6.51792 6.75348 6.31348 7.24704 6.31348 7.76166C6.31348 8.27629 6.51792 8.76984 6.88181 9.13374C7.24571 9.49763 7.73926 9.70207 8.25389 9.70207C8.76852 9.70207 9.26207 9.49763 9.62596 9.13374C9.98986 8.76984 10.1943 8.27629 10.1943 7.76166C10.1943 7.24704 9.98986 6.75348 9.62596 6.38959C9.26207 6.02569 8.76852 5.82126 8.25389 5.82126Z" fill="white"/>
</svg>
