<svg width="16" height="16" viewBox="0 0 16 16" fill="none"
    xmlns="http://www.w3.org/2000/svg">
    <path d="M6.32384 13.9322C6.94477 14.1197 7.57217 14.2297 8.23838 14.2297C9.9538 14.2297 11.599 13.5482 12.812 12.3352C14.025 11.1223 14.7064 9.47709 14.7064 7.76166C14.7064 6.91227 14.5391 6.07119 14.2141 5.28646C13.889 4.50172 13.4126 3.78869 12.812 3.18808C12.2113 2.58747 11.4983 2.11104 10.7136 1.78599C9.92885 1.46094 9.08777 1.29364 8.23838 1.29364C7.38899 1.29364 6.54791 1.46094 5.76317 1.78599C4.97844 2.11104 4.26541 2.58747 3.6648 3.18808C2.45181 4.40107 1.77036 6.04624 1.77036 7.76166C1.77036 10.5106 3.49732 12.8714 5.93576 13.8028C5.87755 13.2983 5.81934 12.4639 5.93576 11.8883L6.67958 8.69306C6.67958 8.69306 6.49201 8.31791 6.49201 7.72285C6.49201 6.83027 7.04826 6.16406 7.68213 6.16406C8.23838 6.16406 8.4971 6.57155 8.4971 7.09546C8.4971 7.65171 8.12842 8.44727 7.94085 9.2105C7.83089 9.84437 8.27719 10.4006 8.92399 10.4006C10.0753 10.4006 10.9679 9.17169 10.9679 7.43826C10.9679 5.88594 9.85538 4.82518 8.25778 4.82518C6.4338 4.82518 5.36011 6.18347 5.36011 7.6129C5.36011 8.16915 5.54121 8.73187 5.83874 9.10054C5.89695 9.13935 5.89695 9.1911 5.87755 9.28812L5.68998 9.99313C5.68998 10.1031 5.61883 10.1419 5.50887 10.0643C4.68097 9.70207 4.20233 8.52489 4.20233 7.57409C4.20233 5.5302 5.65117 3.67387 8.44535 3.67387C10.6704 3.67387 12.4038 5.27147 12.4038 7.39299C12.4038 9.61799 11.0261 11.4032 9.05335 11.4032C8.42595 11.4032 7.81149 11.0668 7.59158 10.6723L7.15822 12.2052C7.00945 12.7614 6.60197 13.5053 6.32384 13.9516V13.9322Z" fill="white"/>
</svg>
