<svg width="17" height="16" viewBox="0 0 17 16" fill="none"
    xmlns="http://www.w3.org/2000/svg">
    <path d="M15.5117 3.88076C15.0136 4.10714 14.4768 4.25591 13.9205 4.32706C14.4897 3.98425 14.9295 3.44094 15.1365 2.78767C14.5997 3.11107 14.0046 3.33745 13.3772 3.46681C12.8662 2.91056 12.1483 2.58716 11.3333 2.58716C9.81333 2.58716 8.57147 3.82902 8.57147 5.36194C8.57147 5.58185 8.59734 5.7953 8.64262 5.99581C6.34 5.87938 4.28964 4.77335 2.92488 3.09813C2.68557 3.50562 2.54974 3.98425 2.54974 4.48876C2.54974 5.45249 3.03484 6.30627 3.78513 6.79137C3.3259 6.79137 2.89901 6.66201 2.52387 6.46797V6.48738C2.52387 7.83273 3.48113 8.95816 4.74887 9.21041C4.34185 9.3218 3.91455 9.3373 3.50054 9.25569C3.67621 9.80708 4.02027 10.2895 4.48434 10.6353C4.9484 10.981 5.50915 11.1726 6.08775 11.1832C5.10696 11.9596 3.8912 12.3793 2.64029 12.3733C2.42038 12.3733 2.20047 12.3603 1.98055 12.3345C3.20948 13.1236 4.67125 13.5828 6.23651 13.5828C11.3333 13.5828 14.134 9.35271 14.134 5.68534C14.134 5.56245 14.134 5.44602 14.1275 5.32313C14.6708 4.93505 15.1365 4.44348 15.5117 3.88076Z" fill="#fff"/>
</svg>
